<?xml version="1.0" encoding="UTF-8"?>
<svg version="1.1" xmlns="http://www.w3.org/2000/svg" width="132" height="131">
<path d="M0 0 C12.48589952 11.50410229 17.935995 26.38757765 18.71484375 43.08203125 C18.49296772 59.15219533 13.1791532 73.28225664 1.828125 84.9375 C1.11269531 85.63230469 0.39726563 86.32710938 -0.33984375 87.04296875 C-1.15001953 87.88408203 -1.15001953 87.88408203 -1.9765625 88.7421875 C-12.4456032 98.78930213 -27.08840903 102.80623883 -41.23046875 103.1328125 C-58.84229071 102.42616532 -73.63086418 95.93153396 -85.79296875 83.13671875 C-96.4480028 70.72995211 -101.31547267 55.29489262 -100.33984375 39.04296875 C-99.13477513 26.63076199 -94.81192831 15.99937811 -87.33984375 6.04296875 C-86.73398438 5.22699219 -86.128125 4.41101563 -85.50390625 3.5703125 C-76.12337655 -7.38492707 -61.65628478 -14.29749244 -47.42578125 -15.796875 C-29.20615184 -17.1957604 -13.93759893 -11.65732398 0 0 Z M-61.33984375 -0.95703125 C-59.11254673 1.77007316 -56.88157498 4.49230537 -54.625 7.1953125 C-52.33984375 10.04296875 -52.33984375 10.04296875 -51.0859375 12.109375 C-49.40572714 14.84383499 -47.60892511 15.95609391 -44.60546875 16.92578125 C-40.61380796 17.45099978 -38.1823656 17.32660596 -34.33984375 16.04296875 C-28.66243377 11.60094883 -22.6389038 4.94014889 -20.33984375 -1.95703125 C-33.6871797 -6.4394949 -48.77819802 -9.33146173 -61.33984375 -0.95703125 Z M-73.50390625 5.94140625 C-74.31601563 6.75867188 -75.128125 7.5759375 -75.96484375 8.41796875 C-76.78210938 9.23007812 -77.599375 10.0421875 -78.44140625 10.87890625 C-80.55966533 12.81375472 -80.55966533 12.81375472 -80.33984375 15.04296875 C-75.09936321 19.87316256 -69.39440365 24.27932341 -63.33984375 28.04296875 C-60.69232371 25.46512029 -58.3955231 23.12648777 -56.33984375 20.04296875 C-57.19449219 19.05554687 -58.04914062 18.068125 -58.9296875 17.05078125 C-60.04568115 15.75660374 -61.16156066 14.4623278 -62.27734375 13.16796875 C-62.84130859 12.51699219 -63.40527344 11.86601563 -63.98632812 11.1953125 C-64.52451172 10.57011719 -65.06269531 9.94492187 -65.6171875 9.30078125 C-66.36343384 8.43670654 -66.36343384 8.43670654 -67.12475586 7.55517578 C-68.33984375 6.04296875 -68.33984375 6.04296875 -69.33984375 4.04296875 C-71.56905778 3.82314717 -71.56905778 3.82314717 -73.50390625 5.94140625 Z M-12.33984375 4.04296875 C-17.17003756 9.28344929 -21.57619841 14.98840885 -25.33984375 21.04296875 C-22.76199529 23.69048879 -20.42336277 25.9872894 -17.33984375 28.04296875 C-14.82786407 25.95277006 -12.33252221 23.8436313 -9.83984375 21.73046875 C-9.12441406 21.13556641 -8.40898438 20.54066406 -7.671875 19.92773438 C-6.99511719 19.35087891 -6.31835938 18.77402344 -5.62109375 18.1796875 C-4.99267578 17.65076904 -4.36425781 17.12185059 -3.71679688 16.5769043 C-2.00584262 15.01443914 -2.00584262 15.01443914 -2.33984375 12.04296875 C-4.02905101 9.91293018 -4.02905101 9.91293018 -6.21484375 7.85546875 C-6.93414062 7.14003906 -7.6534375 6.42460937 -8.39453125 5.6875 C-10.16985321 3.82776926 -10.16985321 3.82776926 -12.33984375 4.04296875 Z M-86.33984375 23.04296875 C-86.82290275 24.43745984 -87.30109892 25.83363582 -87.77734375 27.23046875 C-88.04417969 28.00777344 -88.31101562 28.78507812 -88.5859375 29.5859375 C-92.26332155 41.57077981 -90.22206905 52.48294967 -86.33984375 64.04296875 C-74.72852448 57.36913142 -74.72852448 57.36913142 -66.96875 46.88671875 C-66.49854354 42.89238758 -66.74758981 40.76254298 -68.33984375 37.04296875 C-72.91470334 31.39868105 -79.37460254 25.36471582 -86.33984375 23.04296875 Z M-4.78515625 29.7578125 C-6.82094737 31.57881832 -8.66159146 32.88787465 -10.96484375 34.29296875 C-14.35740919 38.22120241 -14.71092312 41.33440373 -14.53515625 46.4609375 C-12.13713874 53.64715336 -4.81817613 59.31988448 1.66015625 63.04296875 C2.65015625 63.04296875 3.64015625 63.04296875 4.66015625 63.04296875 C5.14321525 61.64847766 5.62141142 60.25230168 6.09765625 58.85546875 C6.36449219 58.07816406 6.63132812 57.30085938 6.90625 56.5 C10.44432394 44.9691787 8.39935092 34.26055277 4.66015625 23.04296875 C0.77780694 23.04296875 -2.08117353 27.22233885 -4.78515625 29.7578125 Z M-56.140625 34.32421875 C-59.04552586 38.48759457 -58.78245441 43.18260262 -58.33984375 48.04296875 C-56.52587775 53.48486674 -52.95721737 56.82130125 -48.33984375 60.04296875 C-43.16288611 61.7686213 -38.21696357 61.72883945 -33.08984375 59.85546875 C-28.40289167 56.76634124 -24.73199444 53.6115715 -23.33984375 48.04296875 C-22.74571484 42.324478 -22.98953131 37.90632552 -26.33984375 33.04296875 C-30.73896455 28.61264851 -34.22680305 25.92614058 -40.65234375 25.79296875 C-47.88353511 25.92167928 -51.66010037 28.96170109 -56.140625 34.32421875 Z M-64.33984375 59.04296875 C-65.82097656 60.32494141 -65.82097656 60.32494141 -67.33203125 61.6328125 C-68.62620876 62.74880615 -69.9204847 63.86468566 -71.21484375 64.98046875 C-72.19130859 65.82641602 -72.19130859 65.82641602 -73.1875 66.68945312 C-73.81269531 67.22763672 -74.43789062 67.76582031 -75.08203125 68.3203125 C-75.65808105 68.81781006 -76.23413086 69.31530762 -76.82763672 69.82788086 C-78.33984375 71.04296875 -78.33984375 71.04296875 -80.33984375 72.04296875 C-78.93139657 75.2582118 -77.23639589 77.36480743 -74.71484375 79.79296875 C-74.08320312 80.4065625 -73.4515625 81.02015625 -72.80078125 81.65234375 C-72.31867188 82.11125 -71.8365625 82.57015625 -71.33984375 83.04296875 C-65.32257578 78.56859001 -60.96068665 72.90630496 -56.33984375 67.04296875 C-57.29406183 65.89370609 -58.2533642 64.74866334 -59.21484375 63.60546875 C-59.74851562 62.96738281 -60.2821875 62.32929687 -60.83203125 61.671875 C-62.26211945 59.93491871 -62.26211945 59.93491871 -64.33984375 59.04296875 Z M-19.96875 60.57421875 C-20.60683594 61.22390625 -21.24492188 61.87359375 -21.90234375 62.54296875 C-22.54300781 63.19265625 -23.18367188 63.84234375 -23.84375 64.51171875 C-24.33746094 65.01703125 -24.83117187 65.52234375 -25.33984375 66.04296875 C-21.08078358 71.76851851 -16.73703439 77.42289077 -12.33984375 83.04296875 C-7.51308786 80.6295908 -4.64000373 77.18234467 -1.33984375 73.04296875 C-4.75935295 69.52985985 -8.2829547 66.33256888 -12.08984375 63.23046875 C-13.0540625 62.44027344 -14.01828125 61.65007812 -15.01171875 60.8359375 C-17.66081193 58.49396782 -17.66081193 58.49396782 -19.96875 60.57421875 Z M-56.33984375 81.04296875 C-57.3508731 82.21814169 -58.36975208 83.38669618 -59.40234375 84.54296875 C-61.54403431 86.77929123 -61.54403431 86.77929123 -61.33984375 89.04296875 C-48.10218411 93.72027516 -36.86922387 94.23425344 -23.33984375 90.04296875 C-22.67984375 89.71296875 -22.01984375 89.38296875 -21.33984375 89.04296875 C-22.77242587 81.91128609 -28.70914391 75.42855457 -34.33984375 71.04296875 C-44.86992842 67.08961135 -50.48984187 72.89431748 -56.33984375 81.04296875 Z " fill="#B82C2E" transform="translate(108.33984375,22.95703125)"/>
<path d="M0 0 C0.81726562 0.19464844 1.63453125 0.38929687 2.4765625 0.58984375 C3.10304687 0.74582031 3.72953125 0.90179688 4.375 1.0625 C4.375 1.7225 4.375 2.3825 4.375 3.0625 C6.685 3.7225 8.995 4.3825 11.375 5.0625 C11.375 5.7225 11.375 6.3825 11.375 7.0625 C12.035 7.3925 12.695 7.7225 13.375 8.0625 C12.055 8.3925 10.735 8.7225 9.375 9.0625 C9.375 9.7225 9.375 10.3825 9.375 11.0625 C8.715 11.0625 8.055 11.0625 7.375 11.0625 C7.375 14.0325 7.375 17.0025 7.375 20.0625 C7.705 18.7425 8.035 17.4225 8.375 16.0625 C9.365 16.0625 10.355 16.0625 11.375 16.0625 C11.375 15.4025 11.375 14.7425 11.375 14.0625 C12.035 14.0625 12.695 14.0625 13.375 14.0625 C13.375 12.7425 13.375 11.4225 13.375 10.0625 C14.44878906 10.206875 15.52257813 10.35125 16.62890625 10.5 C18.06507356 10.68773429 19.50127324 10.87522109 20.9375 11.0625 C21.64197266 11.15789062 22.34644531 11.25328125 23.07226562 11.3515625 C27.54867855 11.92916417 31.86161238 12.15739383 36.375 12.0625 C36.375 13.0525 36.375 14.0425 36.375 15.0625 C38.025 15.7225 39.675 16.3825 41.375 17.0625 C41.375 16.0725 41.375 15.0825 41.375 14.0625 C40.385 13.7325 39.395 13.4025 38.375 13.0625 C38.705 11.7425 39.035 10.4225 39.375 9.0625 C40.20644531 10.073125 41.03789063 11.08375 41.89453125 12.125 C42.99172758 13.4378845 44.08940906 14.75036366 45.1875 16.0625 C46.00831055 17.06410156 46.00831055 17.06410156 46.84570312 18.0859375 C47.37744141 18.71757813 47.90917969 19.34921875 48.45703125 20 C48.94405518 20.58652344 49.4310791 21.17304687 49.93286133 21.77734375 C51.42633918 23.39515234 51.42633918 23.39515234 54.375 23.0625 C56.28185556 21.29993069 56.28185556 21.29993069 58.0625 19.0625 C58.68511719 18.32 59.30773437 17.5775 59.94921875 16.8125 C60.65498047 15.94625 60.65498047 15.94625 61.375 15.0625 C60.385 13.7425 59.395 12.4225 58.375 11.0625 C60.685 11.7225 62.995 12.3825 65.375 13.0625 C65.478125 13.701875 65.58125 14.34125 65.6875 15 C65.914375 15.680625 66.14125 16.36125 66.375 17.0625 C67.86 17.5575 67.86 17.5575 69.375 18.0625 C69.87 16.5775 69.87 16.5775 70.375 15.0625 C72.4375 14.375 72.4375 14.375 74.375 14.0625 C72.26179871 20.33501811 67.90022395 24.38643525 63.375 29.0625 C62.8284375 29.63484375 62.281875 30.2071875 61.71875 30.796875 C51.18649316 40.7917718 36.6511337 44.82519972 22.484375 45.15234375 C4.86617136 44.44544052 -9.88334104 37.94560787 -22.0703125 25.17578125 C-27.16044517 19.2539401 -33.0388131 10.96206627 -33.625 3.0625 C-32.965 2.4025 -32.305 1.7425 -31.625 1.0625 C-30.965 2.7125 -30.305 4.3625 -29.625 6.0625 C-28.965 5.0725 -28.305 4.0825 -27.625 3.0625 C-26.625 4.0625 -26.625 4.0625 -26.5625 6.625 C-26.583125 7.429375 -26.60375 8.23375 -26.625 9.0625 C-27.285 9.0625 -27.945 9.0625 -28.625 9.0625 C-28.295 10.0525 -27.965 11.0425 -27.625 12.0625 C-24.57229537 12.22061388 -24.57229537 12.22061388 -21.625 11.0625 C-20.635 11.0625 -19.645 11.0625 -18.625 11.0625 C-18.625 10.4025 -18.625 9.7425 -18.625 9.0625 C-17.820625 8.93875 -17.01625 8.815 -16.1875 8.6875 C-15.341875 8.48125 -14.49625 8.275 -13.625 8.0625 C-13.295 7.4025 -12.965 6.7425 -12.625 6.0625 C-11.305 6.0625 -9.985 6.0625 -8.625 6.0625 C-6.3476499 3.24740007 -6.3476499 3.24740007 -6.625 0.0625 C-3.99249612 -1.25375194 -2.82320944 -0.68563658 0 0 Z M-0.625 1.0625 C-2.10613281 2.34447266 -2.10613281 2.34447266 -3.6171875 3.65234375 C-4.91136501 4.7683374 -6.20564095 5.88421691 -7.5 7 C-8.47646484 7.84594727 -8.47646484 7.84594727 -9.47265625 8.70898438 C-10.09785156 9.24716797 -10.72304688 9.78535156 -11.3671875 10.33984375 C-11.9432373 10.83734131 -12.51928711 11.33483887 -13.11279297 11.84741211 C-14.625 13.0625 -14.625 13.0625 -16.625 14.0625 C-15.21655282 17.27774305 -13.52155214 19.38433868 -11 21.8125 C-10.36835937 22.42609375 -9.73671875 23.0396875 -9.0859375 23.671875 C-8.60382812 24.13078125 -8.12171875 24.5896875 -7.625 25.0625 C-1.60773203 20.58812126 2.7541571 14.92583621 7.375 9.0625 C6.42078192 7.91323734 5.46147955 6.76819459 4.5 5.625 C3.96632813 4.98691406 3.43265625 4.34882812 2.8828125 3.69140625 C1.4527243 1.95444996 1.4527243 1.95444996 -0.625 1.0625 Z M7.375 23.0625 C6.36397065 24.23767294 5.34509167 25.40622743 4.3125 26.5625 C2.17080944 28.79882248 2.17080944 28.79882248 2.375 31.0625 C15.61265964 35.73980641 26.84561988 36.25378469 40.375 32.0625 C41.035 31.7325 41.695 31.4025 42.375 31.0625 C40.94241788 23.93081734 35.00569984 17.44808582 29.375 13.0625 C18.84491533 9.1091426 13.22500188 14.91384873 7.375 23.0625 Z M63.375 18.0625 C62.59125 18.866875 61.8075 19.67125 61 20.5 C58.375 23.0625 58.375 23.0625 56.375 24.0625 C56.375 24.7225 56.375 25.3825 56.375 26.0625 C54.725 26.0625 53.075 26.0625 51.375 26.0625 C52.365 26.5575 52.365 26.5575 53.375 27.0625 C53.375 27.7225 53.375 28.3825 53.375 29.0625 C55.77219432 29.74208603 55.77219432 29.74208603 58.375 30.0625 C59.035 29.4025 59.695 28.7425 60.375 28.0625 C61.365 27.7325 62.355 27.4025 63.375 27.0625 C63.375 25.7425 63.375 24.4225 63.375 23.0625 C64.695 23.0625 66.015 23.0625 67.375 23.0625 C66.0660428 19.94052522 66.0660428 19.94052522 63.375 18.0625 Z " fill="#B62122" transform="translate(44.625,80.9375)"/>
<path d="M0 0 C0.99 0.66 1.98 1.32 3 2 C2.01 2.66 1.02 3.32 0 4 C-0.25030977 6.58380177 -0.25030977 6.58380177 0 9 C-0.99 9.33 -1.98 9.66 -3 10 C-6.70102737 16.05088602 -6.01469395 22.4285488 -5.12890625 29.1796875 C-5 32 -5 32 -7 35 C-6.4225 34.649375 -5.845 34.29875 -5.25 33.9375 C-3 33 -3 33 -1.0625 33.125 C1.69296488 34.2939851 3.6947588 36.10852004 6 38 C13.23652615 40.41217538 19.16474851 38.82837993 26 36 C26.99 36 27.98 36 29 36 C29.495 35.01 29.495 35.01 30 34 C31.125 41.625 31.125 41.625 30 45 C29.66666667 47.5 29.66666667 47.5 30 50 C31.39585785 51.81476003 31.39585785 51.81476003 33 53 C32.505 53.99 32.505 53.99 32 55 C30.02 54.01 28.04 53.02 26 52 C26.33 51.01 26.66 50.02 27 49 C26.0925 49.185625 25.185 49.37125 24.25 49.5625 C17.63807337 50.50899256 9.86153039 50.42738651 4 47 C4 48.32 4 49.64 4 51 C3.34 51 2.68 51 2 51 C2 51.66 2 52.32 2 53 C1.01 53 0.02 53 -1 53 C-1 54.65 -1 56.3 -1 58 C-1.99 57.505 -1.99 57.505 -3 57 C-2.67 54.03 -2.34 51.06 -2 48 C-1.34 48 -0.68 48 0 48 C0 47.34 0 46.68 0 46 C0.99 45.67 1.98 45.34 3 45 C2.67 44.01 2.34 43.02 2 42 C-0.64 41.67 -3.28 41.34 -6 41 C-5.67 40.01 -5.34 39.02 -5 38 C-6.45635371 37.77825067 -7.91522956 37.57301302 -9.375 37.375 C-10.18710937 37.25898437 -10.99921875 37.14296875 -11.8359375 37.0234375 C-12.90714844 37.01183594 -12.90714844 37.01183594 -14 37 C-14.66 37.66 -15.32 38.32 -16 39 C-15.67 39.66 -15.34 40.32 -15 41 C-15.66 41 -16.32 41 -17 41 C-17.33 41.99 -17.66 42.98 -18 44 C-19.32 43.67 -20.64 43.34 -22 43 C-22.66 44.32 -23.32 45.64 -24 47 C-24 46.34 -24 45.68 -24 45 C-25.98 45.495 -25.98 45.495 -28 46 C-28 46.66 -28 47.32 -28 48 C-28.804375 48.12375 -29.60875 48.2475 -30.4375 48.375 C-31.283125 48.58125 -32.12875 48.7875 -33 49 C-33.33 49.66 -33.66 50.32 -34 51 C-35.32 50.34 -36.64 49.68 -38 49 C-38 48.01 -38 47.02 -38 46 C-37.34 46 -36.68 46 -36 46 C-36.495 44.515 -36.495 44.515 -37 43 C-37.66 43 -38.32 43 -39 43 C-39.33 43.66 -39.66 44.32 -40 45 C-40.33 43.35 -40.66 41.7 -41 40 C-41.66 40 -42.32 40 -43 40 C-43 33.73 -43 27.46 -43 21 C-42.01 20.67 -41.02 20.34 -40 20 C-39.67 20.99 -39.34 21.98 -39 23 C-38.34 22.01 -37.68 21.02 -37 20 C-37 25.28 -37 30.56 -37 36 C-36.34 36 -35.68 36 -35 36 C-35 37.32 -35 38.64 -35 40 C-34.01 40 -33.02 40 -32 40 C-31.67 40.66 -31.34 41.32 -31 42 C-30.29875 41.39671875 -29.5975 40.7934375 -28.875 40.171875 C-23.46736406 35.6165295 -18.49409218 31.81819095 -12 29 C-12.14019692 26.18711295 -12.28687955 23.37483115 -12.4375 20.5625 C-12.47681641 19.76005859 -12.51613281 18.95761719 -12.55664062 18.13085938 C-12.4054296 14.24760439 -12.4054296 14.24760439 -14 11 C-15.32 11 -16.64 11 -18 11 C-18.93065133 8.39417629 -19.14917407 7.35801776 -18.0625 4.75 C-17.5365625 3.88375 -17.5365625 3.88375 -17 3 C-17 3.66 -17 4.32 -17 5 C-14.10765685 5.82638376 -12.11257569 6 -9 6 C-8.01 6 -7.02 6 -6 6 C-6 5.34 -6 4.68 -6 4 C-4.35 3.67 -2.7 3.34 -1 3 C-0.67 2.01 -0.34 1.02 0 0 Z " fill="#B61E1E" transform="translate(54,44)"/>
<path d="M0 0 C0 0.66 0 1.32 0 2 C-0.66 2 -1.32 2 -2 2 C-2 2.66 -2 3.32 -2 4 C-4.28685107 6.03275651 -6.42950958 7.72290465 -9.1875 9.0625 C-11.34509852 9.99309803 -11.34509852 9.99309803 -13 13 C-11.35 13.66 -9.7 14.32 -8 15 C-8 14.34 -8 13.68 -8 13 C-6.68 13 -5.36 13 -4 13 C-4 12.01 -4 11.02 -4 10 C-2.68 10.66 -1.36 11.32 0 12 C-0.54269531 12.45890625 -1.08539063 12.9178125 -1.64453125 13.390625 C-2.35996094 14.00421875 -3.07539062 14.6178125 -3.8125 15.25 C-4.52019531 15.85328125 -5.22789063 16.4565625 -5.95703125 17.078125 C-7.91889671 18.92370398 -9.45669625 20.79945332 -11 23 C-10.20335937 23.33644531 -10.20335937 23.33644531 -9.390625 23.6796875 C-6.1889114 25.44795416 -3.51852896 27.76049081 -0.75 30.125 C-0.19570313 30.59292969 0.35859375 31.06085937 0.9296875 31.54296875 C2.28947326 32.69175328 3.64515165 33.84539653 5 35 C4.01 35.66 3.02 36.32 2 37 C1.67 36.34 1.34 35.68 1 35 C-0.485 34.505 -0.485 34.505 -2 34 C-2 34.99 -2 35.98 -2 37 C-2.33 37.99 -2.66 38.98 -3 40 C0.465 39.505 0.465 39.505 4 39 C3.82082031 39.85207031 3.64164063 40.70414063 3.45703125 41.58203125 C2.83704954 46.21864657 3.52472098 50.46028774 4.13671875 55.07421875 C4 58 4 58 2.01953125 59.89453125 C1.35308594 60.25933594 0.68664062 60.62414062 0 61 C-0.66 60.67 -1.32 60.34 -2 60 C-1.34 59.34 -0.68 58.68 0 58 C1.20531741 53.41157576 1.2558455 49.57839737 0 45 C-4.0036143 39.75737853 -10.12613511 34.93693244 -16 32 C-16.474375 33.216875 -16.94875 34.43375 -17.4375 35.6875 C-17.83775391 36.71423828 -17.83775391 36.71423828 -18.24609375 37.76171875 C-21.65000861 47.86764214 -20.29063727 58.7943929 -18 69 C-18.66 69 -19.32 69 -20 69 C-20 67.68 -20 66.36 -20 65 C-20.66 65 -21.32 65 -22 65 C-22.04898437 64.14535156 -22.09796875 63.29070312 -22.1484375 62.41015625 C-22.22320312 61.30542969 -22.29796875 60.20070312 -22.375 59.0625 C-22.44460937 57.96035156 -22.51421875 56.85820313 -22.5859375 55.72265625 C-22.72257812 54.82417969 -22.85921875 53.92570312 -23 53 C-23.66 52.67 -24.32 52.34 -25 52 C-25 51.01 -25 50.02 -25 49 C-25.99 49.495 -25.99 49.495 -27 50 C-27.33 55.94 -27.66 61.88 -28 68 C-33.33835062 57.32329876 -31.62030775 42.89058711 -27.96484375 31.8828125 C-25.38917803 25.3732522 -22.1998284 19.59619079 -18 14 C-17.40574219 13.19046875 -16.81148437 12.3809375 -16.19921875 11.546875 C-13.67611845 8.6249187 -10.97509663 6.48400893 -7.875 4.1875 C-6.82054688 3.39730469 -5.76609375 2.60710938 -4.6796875 1.79296875 C-2 0 -2 0 0 0 Z " fill="#B82929" transform="translate(39,15)"/>
<path d="M0 0 C7.86162392 16.65343999 8.84445754 32.73253329 3.03515625 50.29296875 C1.24427481 54.97629267 1.24427481 54.97629267 0 57 C-2.625 57.75 -2.625 57.75 -5 58 C-5.33 59.32 -5.66 60.64 -6 62 C-6.99 61.34 -7.98 60.68 -9 60 C-9.33 60.66 -9.66 61.32 -10 62 C-10.33 60.02 -10.66 58.04 -11 56 C-12.98 55.34 -14.96 54.68 -17 54 C-13.32740617 51.55160412 -10.45351799 50 -6 50 C-6.061875 48.5459375 -6.061875 48.5459375 -6.125 47.0625 C-6.13694714 44.15934606 -5.73576843 41.68930358 -4.99609375 38.88671875 C-3.81881847 33.79302015 -3.80817941 28.95417416 -3.9375 23.75 C-4.14618271 13.30040645 -4.14618271 13.30040645 -3 9 C-3.99 8.67 -4.98 8.34 -6 8 C-5.40138258 5.64828869 -4.73075648 3.3140622 -4 1 C-2 0 -2 0 0 0 Z M-12 61 C-10 62.375 -10 62.375 -8 64 C-8 64.66 -8 65.32 -8 66 C-9.32 66 -10.64 66 -12 66 C-12 67.32 -12 68.64 -12 70 C-12.78375 70.309375 -13.5675 70.61875 -14.375 70.9375 C-16.92330128 71.92875038 -16.92330128 71.92875038 -19 73 C-19.99 72.67 -20.98 72.34 -22 72 C-22 71.34 -22 70.68 -22 70 C-22.66 69.67 -23.32 69.34 -24 69 C-22.35 69 -20.7 69 -19 69 C-19 68.34 -19 67.68 -19 67 C-17.33720673 65.9935725 -15.67016516 64.99414593 -14 64 C-13.34 63.01 -12.68 62.02 -12 61 Z " fill="#B92B2B" transform="translate(120,38)"/>
<path d="M0 0 C4.9240432 4.7652031 9.44259642 9.88657333 14 15 C15.34212062 13.90653119 16.67347975 12.7998425 18 11.6875 C18.7425 11.07261719 19.485 10.45773438 20.25 9.82421875 C22.34613723 8.06049937 22.34613723 8.06049937 22 5 C21.34 4.01 20.68 3.02 20 2 C22.31 2.66 24.62 3.32 27 4 C27.1546875 4.9590625 27.1546875 4.9590625 27.3125 5.9375 C27.6528125 6.9584375 27.6528125 6.9584375 28 8 C28.99 8.33 29.98 8.66 31 9 C31.33 8.01 31.66 7.02 32 6 C34.0625 5.3125 34.0625 5.3125 36 5 C33.88679871 11.27251811 29.52522395 15.32393525 25 20 C24.4534375 20.57234375 23.906875 21.1446875 23.34375 21.734375 C13.54714121 31.03115681 -0.78303521 35.93180409 -14.16845703 36.01318359 C-18.47003337 35.88692177 -22.72593832 35.50969414 -27 35 C-27 34.67 -27 34.34 -27 34 C-14.625 33.505 -14.625 33.505 -2 33 C-2.33 30.69 -2.66 28.38 -3 26 C-5.31 26 -7.62 26 -10 26 C-10 25.67 -10 25.34 -10 25 C-5.38 24.01 -0.76 23.02 4 22 C1.52428383 17.87380638 -1.07941526 14.36797025 -4.1875 10.75 C-9 5.12760779 -9 5.12760779 -9 4 C-5.535 3.505 -5.535 3.505 -2 3 C-2 3.99 -2 4.98 -2 6 C-0.35 6.66 1.3 7.32 3 8 C3 7.01 3 6.02 3 5 C2.01 4.67 1.02 4.34 0 4 C0 2.68 0 1.36 0 0 Z M25 9 C24.21625 9.804375 23.4325 10.60875 22.625 11.4375 C20 14 20 14 18 15 C18 15.66 18 16.32 18 17 C16.35 17 14.7 17 13 17 C13.99 17.495 13.99 17.495 15 18 C15 18.66 15 19.32 15 20 C17.39719432 20.67958603 17.39719432 20.67958603 20 21 C20.66 20.34 21.32 19.68 22 19 C22.99 18.67 23.98 18.34 25 18 C25 16.68 25 15.36 25 14 C26.32 14 27.64 14 29 14 C27.6910428 10.87802522 27.6910428 10.87802522 25 9 Z " fill="#B51C1C" transform="translate(83,90)"/>
<path d="M0 0 C0.33 0.99 0.66 1.98 1 3 C0.01 3.33 -0.98 3.66 -2 4 C-3.20882096 6.00016466 -3.20882096 6.00016466 -4 8 C-3.01 9.485 -3.01 9.485 -2 11 C-2.34641839 14.46418389 -3.03286587 16.04929881 -5 19 C-2.68767578 21.56249975 -2.68767578 21.56249975 0 24 C2.88301208 24.12794628 2.88301208 24.12794628 5.125 23.4375 C5.74375 23.293125 6.3625 23.14875 7 23 C7.33 23.33 7.66 23.66 8 24 C8.66 23.34 9.32 22.68 10 22 C10.495 24.475 10.495 24.475 11 27 C9.68 27.33 8.36 27.66 7 28 C7.495 28.99 7.495 28.99 8 30 C7.525625 30.4125 7.05125 30.825 6.5625 31.25 C4.83733482 33.182185 4.43415125 34.48192275 4 37 C2.515 36.505 2.515 36.505 1 36 C0.67 36.66 0.34 37.32 0 38 C-1.485 37.505 -1.485 37.505 -3 37 C-2.67 34.36 -2.34 31.72 -2 29 C-4.64 28.67 -7.28 28.34 -10 28 C-10 27.34 -10 26.68 -10 26 C-15.37180176 23.37124595 -20.04492601 22.3916035 -26 22 C-26 18 -26 18 -25 16 C-22.44588787 15.68467751 -19.91917172 15.62046299 -17.34765625 15.5390625 C-14.85352474 15.25415511 -14.85352474 15.25415511 -13.7890625 13.1171875 C-13.52867188 12.41851562 -13.26828125 11.71984375 -13 11 C-9.91163036 6.42463757 -6.75755791 4.5549848 -2 2 C-1.34 1.34 -0.68 0.68 0 0 Z " fill="#B61F1F" transform="translate(89,25)"/>
<path d="M0 0 C0.99 0.33 1.98 0.66 3 1 C2.67 3.31 2.34 5.62 2 8 C3.3745183 8.31461197 4.74964419 8.62656973 6.125 8.9375 C6.89070313 9.11152344 7.65640625 9.28554687 8.4453125 9.46484375 C14.43567948 10.71970656 20.27484325 11.26576191 26.375 11.5625 C27.20644531 11.60568359 28.03789063 11.64886719 28.89453125 11.69335938 C30.92953228 11.79861805 32.96474703 11.89973072 35 12 C36.0625 14.375 36.0625 14.375 37 17 C36.67 17.66 36.34 18.32 36 19 C22.73940594 21.78599111 5.73392767 22.51882744 -6 15 C-6.66 14.34 -7.32 13.68 -8 13 C-7.01 13 -6.02 13 -5 13 C-5.103125 11.783125 -5.20625 10.56625 -5.3125 9.3125 C-5.34591521 5.54994773 -5.09330298 5.11196358 -2.5 2 C-1.675 1.34 -0.85 0.68 0 0 Z " fill="#B72D2E" transform="translate(45,104)"/>
<path d="M0 0 C3.10712212 0.78637041 6.09244107 1.63924116 9 3 C10.5625 5.6875 10.5625 5.6875 11 8 C12.98 8 14.96 8 17 8 C16.67 6.68 16.34 5.36 16 4 C18 6 20 8 22 10 C24.18292774 10.23481693 26.37203174 10.41363323 28.5625 10.5625 C29.76003906 10.64628906 30.95757812 10.73007812 32.19140625 10.81640625 C33.11824219 10.87699219 34.04507813 10.93757813 35 11 C31.48375245 12.94158017 29.0284349 13.18311068 25 13 C24.67 14.65 24.34 16.3 24 18 C24.79664062 18.10957031 25.59328125 18.21914063 26.4140625 18.33203125 C32.1472414 19.18991568 37.02580893 19.96021657 42 23 C41.01 23.66 40.02 24.32 39 25 C38.195625 24.505 37.39125 24.01 36.5625 23.5 C31.0548683 21.18099718 26.387772 21.17346354 20.75 23.125 C16.5703011 25.9747947 13.63135676 29.10592971 12 34 C11.5586879 39.38811289 11.92575106 43.94401821 14 49 C12.02 49.66 10.04 50.32 8 51 C8.185625 49.865625 8.37125 48.73125 8.5625 47.5625 C8.99082829 44.36130964 8.87114368 41.73559611 8.3125 38.5625 C7.58752874 33.34270696 9.34250092 29.44168574 12 25 C12.66 24.34 13.32 23.68 14 23 C14.165 22.319375 14.33 21.63875 14.5 20.9375 C14.665 20.298125 14.83 19.65875 15 19 C15.66 18.67 16.32 18.34 17 18 C16.34 17.67 15.68 17.34 15 17 C14.67 17.66 14.34 18.32 14 19 C11.4375 19.625 11.4375 19.625 9 20 C9 20.66 9 21.32 9 22 C8.34 21.67 7.68 21.34 7 21 C8.65 19.02 10.3 17.04 12 15 C11.63648438 14.58113525 11.27296875 14.16227051 10.8984375 13.73071289 C9.26307827 11.84349786 7.63149817 9.95305362 6 8.0625 C5.42765625 7.40314453 4.8553125 6.74378906 4.265625 6.06445312 C3.72421875 5.43603516 3.1828125 4.80761719 2.625 4.16015625 C2.12226562 3.57886963 1.61953125 2.99758301 1.1015625 2.39868164 C0 1 0 1 0 0 Z " fill="#BA3738" transform="translate(39,28)"/>
<path d="M0 0 C2 1 2 1 2 1 Z M10 -1 C10.66 -0.67 11.32 -0.34 12 0 C12 0.99 12 1.98 12 3 C11.01 3 10.02 3 9 3 C8.67 3.99 8.34 4.98 8 6 C5.27734375 6.94921875 5.27734375 6.94921875 1.9375 7.6875 C0.83277344 7.93886719 -0.27195312 8.19023437 -1.41015625 8.44921875 C-2.26480469 8.63097656 -3.11945312 8.81273437 -4 9 C-3.67 9.7425 -3.34 10.485 -3 11.25 C-2 14 -2 14 -2 18 C0.31 18.33 2.62 18.66 5 19 C5.66 20.98 6.32 22.96 7 25 C5.02 25.33 3.04 25.66 1 26 C0.67 25.071875 0.34 24.14375 0 23.1875 C-2.75750679 18.79272355 -5.10922593 18.44317923 -10 17 C-10 16.34 -10 15.68 -10 15 C-11.32 14.67 -12.64 14.34 -14 14 C-14 14.99 -14 15.98 -14 17 C-15.32 17 -16.64 17 -18 17 C-17.67 17.99 -17.34 18.98 -17 20 C-21.75 19.25 -21.75 19.25 -24 17 C-21.05508463 13.80967502 -19.23990994 11.90855213 -15 11 C-14.67 10.01 -14.34 9.02 -14 8 C-13.34 8 -12.68 8 -12 8 C-12 7.34 -12 6.68 -12 6 C-11.34 6 -10.68 6 -10 6 C-10 5.34 -10 4.68 -10 4 C-8.865625 3.87625 -7.73125 3.7525 -6.5625 3.625 C-4.7990625 3.315625 -4.7990625 3.315625 -3 3 C-2.67 2.34 -2.34 1.68 -2 1 C-1.2575 1.20625 -0.515 1.4125 0.25 1.625 C3.3901874 2.05320737 4.3469549 1.59182706 7 0 C7.99 -0.33 8.98 -0.66 10 -1 Z " fill="#B71D1D" transform="translate(49,11)"/>
<path d="M0 0 C0.66 0 1.32 0 2 0 C2.33 0.99 2.66 1.98 3 3 C3.66 2.01 4.32 1.02 5 0 C5 5.28 5 10.56 5 16 C5.66 16 6.32 16 7 16 C7 17.32 7 18.64 7 20 C7.66 20 8.32 20 9 20 C9 21.32 9 22.64 9 24 C12.3 23.01 15.6 22.02 19 21 C19.33 22.32 19.66 23.64 20 25 C19.34 25.66 18.68 26.32 18 27 C18 26.34 18 25.68 18 25 C16.68 25.33 15.36 25.66 14 26 C14 26.66 14 27.32 14 28 C13.195625 28.12375 12.39125 28.2475 11.5625 28.375 C10.716875 28.58125 9.87125 28.7875 9 29 C8.67 29.66 8.34 30.32 8 31 C6.68 30.34 5.36 29.68 4 29 C4 28.01 4 27.02 4 26 C4.66 26 5.32 26 6 26 C5.67 25.01 5.34 24.02 5 23 C4.34 23 3.68 23 3 23 C2.67 23.66 2.34 24.32 2 25 C1.67 23.35 1.34 21.7 1 20 C0.34 20 -0.32 20 -1 20 C-1.02888514 16.85418577 -1.04675923 13.70840531 -1.0625 10.5625 C-1.07087891 9.66466797 -1.07925781 8.76683594 -1.08789062 7.84179688 C-1.09111328 6.98779297 -1.09433594 6.13378906 -1.09765625 5.25390625 C-1.10551147 4.06776733 -1.10551147 4.06776733 -1.11352539 2.85766602 C-1 1 -1 1 0 0 Z M21 18 C21.66 18.33 22.32 18.66 23 19 C23.625 21.0625 23.625 21.0625 24 23 C22.0625 22.6875 22.0625 22.6875 20 22 C19.67 21.01 19.34 20.02 19 19 C19.66 18.67 20.32 18.34 21 18 Z " fill="#B61C1C" transform="translate(12,64)"/>
<path d="M0 0 C0.33 0 0.66 0 1 0 C0.90976563 0.79921875 0.81953125 1.5984375 0.7265625 2.421875 C0.58770841 6.97201664 0.47288112 11.02321738 3.37304688 14.77734375 C7.81902282 19.2691545 12.94732503 23.98244168 19 26 C19.33 25.34 19.66 24.68 20 24 C20 25.32 20 26.64 20 28 C16.0444727 30.10547264 12.48637912 31.58745939 8 32 C3.49669933 29.80861281 0.12677172 26.9011317 -3 23 C-3.80078125 20.18359375 -3.80078125 20.18359375 -4 18 C-3.34515625 17.66355469 -2.6903125 17.32710937 -2.015625 16.98046875 C0.37627855 15.04818496 0.37627855 15.04818496 0.390625 11.42578125 C0.3641199 10.05414252 0.3165309 8.68278062 0.25 7.3125 C0.23195313 6.61060547 0.21390625 5.90871094 0.1953125 5.18554688 C0.14826213 3.45644564 0.07651873 1.72804795 0 0 Z " fill="#C14F52" transform="translate(94,60)"/>
<path d="M0 0 C3.95969176 1.67229701 7.0161201 4.36304994 10.25 7.125 C10.80429687 7.59292969 11.35859375 8.06085937 11.9296875 8.54296875 C13.28947326 9.69175328 14.64515165 10.84539653 16 12 C15.01 12.66 14.02 13.32 13 14 C12.67 13.34 12.34 12.68 12 12 C11.01 11.67 10.02 11.34 9 11 C9 11.99 9 12.98 9 14 C8.67 14.99 8.34 15.98 8 17 C11.465 16.505 11.465 16.505 15 16 C14.82082031 16.85207031 14.64164063 17.70414063 14.45703125 18.58203125 C13.83704954 23.21864657 14.52472098 27.46028774 15.13671875 32.07421875 C15 35 15 35 13.01953125 36.89453125 C12.35308594 37.25933594 11.68664062 37.62414062 11 38 C10.34 37.67 9.68 37.34 9 37 C9.66 36.34 10.32 35.68 11 35 C12.20491718 30.41309937 12.25335084 26.57745524 11 22 C7.64589247 17.6358557 3.08662766 14.39529959 -1.37426758 11.23583984 C-3.07179733 9.94542152 -4.52605345 8.53781292 -6 7 C-3.10765685 6.17361624 -1.11257569 6 2 6 C2.33 5.01 2.66 4.02 3 3 C2.01 3 1.02 3 0 3 C0 2.01 0 1.02 0 0 Z " fill="#BB3F41" transform="translate(28,38)"/>
<path d="M0 0 C2.64 0 5.28 0 8 0 C9.2077558 3.62326739 8.54311128 4.64146369 7 8 C6.34 8 5.68 8 5 8 C4.73445313 8.58265625 4.46890625 9.1653125 4.1953125 9.765625 C2.96697004 12.06174228 1.59685061 13.80356018 -0.125 15.75 C-0.93324219 16.67039062 -0.93324219 16.67039062 -1.7578125 17.609375 C-2.16773437 18.06828125 -2.57765625 18.5271875 -3 19 C-3.28875 18.360625 -3.5775 17.72125 -3.875 17.0625 C-4.82823451 14.84793921 -4.82823451 14.84793921 -7 14 C-5.35 12.35 -3.7 10.7 -2 9 C-2.33 8.67 -2.66 8.34 -3 8 C-4.65 9.32 -6.3 10.64 -8 12 C-8.66 11.67 -9.32 11.34 -10 11 C-8.02 8.36 -6.04 5.72 -4 3 C-4.66 2.34 -5.32 1.68 -6 1 C-4.35 1.33 -2.7 1.66 -1 2 C-0.67 1.34 -0.34 0.68 0 0 Z " fill="#B81B1C" transform="translate(91,19)"/>
<path d="M0 0 C1.11058786 2.07309734 1.97398494 3.88618411 2.5 6.1875 C2.665 6.785625 2.83 7.38375 3 8 C3.66 8.33 4.32 8.66 5 9 C4.67 9.99 4.34 10.98 4 12 C3.01 12 2.02 12 1 12 C0.67 13.32 0.34 14.64 0 16 C-0.99 15.34 -1.98 14.68 -3 14 C-3.33 14.66 -3.66 15.32 -4 16 C-4.33 14.02 -4.66 12.04 -5 10 C-6.98 9.34 -8.96 8.68 -11 8 C-7.32740617 5.55160412 -4.45351799 4 0 4 C0 2.68 0 1.36 0 0 Z M-6 15 C-4 16.375 -4 16.375 -2 18 C-2 18.66 -2 19.32 -2 20 C-3.32 20 -4.64 20 -6 20 C-6 21.32 -6 22.64 -6 24 C-6.78375 24.309375 -7.5675 24.61875 -8.375 24.9375 C-10.92330128 25.92875038 -10.92330128 25.92875038 -13 27 C-13.99 26.67 -14.98 26.34 -16 26 C-16 25.34 -16 24.68 -16 24 C-16.66 23.67 -17.32 23.34 -18 23 C-16.35 23 -14.7 23 -13 23 C-13 22.34 -13 21.68 -13 21 C-11.33720673 19.9935725 -9.67016516 18.99414593 -8 18 C-7.34 17.01 -6.68 16.02 -6 15 Z " fill="#B61C1D" transform="translate(114,84)"/>
<path d="M0 0 C0.66 0 1.32 0 2 0 C1.67 2.31 1.34 4.62 1 7 C1.66 7 2.32 7 3 7 C3.495 7.99 3.495 7.99 4 9 C5.65 9 7.3 9 9 9 C-0.16671466 16.65716022 -14.2661266 17.55055935 -25.7265625 16.828125 C-27.49321319 16.61587721 -29.24992055 16.32144316 -31 16 C-31 15.67 -31 15.34 -31 15 C-18.625 14.505 -18.625 14.505 -6 14 C-6.33 11.69 -6.66 9.38 -7 7 C-9.31 7 -11.62 7 -14 7 C-14 6.67 -14 6.34 -14 6 C-7.07 4.515 -7.07 4.515 0 3 C0 2.01 0 1.02 0 0 Z " fill="#BD4E4E" transform="translate(87,109)"/>
<path d="M0 0 C0.99 0.66 1.98 1.32 3 2 C2.01 2.66 1.02 3.32 0 4 C-0.25030977 6.58380177 -0.25030977 6.58380177 0 9 C-0.99 9.33 -1.98 9.66 -3 10 C-3.12375 10.639375 -3.2475 11.27875 -3.375 11.9375 C-4 14 -4 14 -6.3125 15.25 C-9 16 -9 16 -13 16 C-12.67 14.35 -12.34 12.7 -12 11 C-13.98 11 -15.96 11 -18 11 C-18.93065133 8.39417629 -19.14917407 7.35801776 -18.0625 4.75 C-17.5365625 3.88375 -17.5365625 3.88375 -17 3 C-17 3.66 -17 4.32 -17 5 C-14.10765685 5.82638376 -12.11257569 6 -9 6 C-8.01 6 -7.02 6 -6 6 C-6 5.34 -6 4.68 -6 4 C-4.35 3.67 -2.7 3.34 -1 3 C-0.67 2.01 -0.34 1.02 0 0 Z " fill="#B71E1E" transform="translate(54,44)"/>
<path d="M0 0 C0 0.66 0 1.32 0 2 C-0.66 2 -1.32 2 -2 2 C-2 2.66 -2 3.32 -2 4 C-4.28685107 6.03275651 -6.42950958 7.72290465 -9.1875 9.0625 C-11.34509852 9.99309803 -11.34509852 9.99309803 -13 13 C-10.525 13.99 -10.525 13.99 -8 15 C-8 14.34 -8 13.68 -8 13 C-6.68 13 -5.36 13 -4 13 C-4 12.01 -4 11.02 -4 10 C-2.68 10.66 -1.36 11.32 0 12 C-0.53109375 12.45890625 -1.0621875 12.9178125 -1.609375 13.390625 C-5.18324699 16.49493717 -8.71854059 19.58181312 -12 23 C-12 22.01 -12 21.02 -12 20 C-12.66 20 -13.32 20 -14 20 C-14 19.34 -14 18.68 -14 18 C-15.98 18.33 -17.96 18.66 -20 19 C-20.33 20.32 -20.66 21.64 -21 23 C-21.66 23 -22.32 23 -23 23 C-20.13919378 15.20770877 -9.52503713 0 0 0 Z " fill="#BA4142" transform="translate(39,15)"/>
<path d="M0 0 C0 0.66 0 1.32 0 2 C0.66 2 1.32 2 2 2 C2.33 3.98 2.66 5.96 3 8 C3.99 8 4.98 8 6 8 C5.67 9.32 5.34 10.64 5 12 C-0.26601605 12 -4.55212087 11.96525275 -9 9 C-9 7.68 -9 6.36 -9 5 C-8.34 4.67 -7.68 4.34 -7 4 C-6.67 3.01 -6.34 2.02 -6 1 C-3.90006779 0.25486277 -2.22568901 0 0 0 Z " fill="#B61C1D" transform="translate(25,33)"/>
<path d="M0 0 C3.26008643 3.16952847 6.22237877 6.39937989 9 10 C6.64046906 12.35953094 5.22104383 12.49141413 2 13 C2 13.99 2 14.98 2 16 C2.66 16.33 3.32 16.66 4 17 C3.01 17 2.02 17 1 17 C-0.85739962 15.06069929 -2.52243785 13.1551102 -4.1875 11.0625 C-4.65091797 10.49853516 -5.11433594 9.93457031 -5.59179688 9.35351562 C-9 5.16227909 -9 5.16227909 -9 4 C-5.535 3.505 -5.535 3.505 -2 3 C-2 3.99 -2 4.98 -2 6 C0.475 6.99 0.475 6.99 3 8 C3 7.01 3 6.02 3 5 C2.01 4.67 1.02 4.34 0 4 C0 2.68 0 1.36 0 0 Z " fill="#BD4747" transform="translate(83,90)"/>
<path d="M0 0 C6.46182585 0.07480297 12.35710941 1.29961649 18.51757812 3.25976562 C18.18757813 3.91976563 17.85757813 4.57976563 17.51757812 5.25976562 C16.87433594 5.11539062 16.23109375 4.97101562 15.56835938 4.82226562 C3.79803494 2.40439584 -8.43119844 1.73415391 -19.48242188 7.25976562 C-17.83242188 9.23976563 -16.18242188 11.21976563 -14.48242188 13.25976562 C-14.81242187 13.91976563 -15.14242187 14.57976563 -15.48242188 15.25976562 C-17.85742188 15.07226562 -17.85742188 15.07226562 -20.48242188 14.25976562 C-22.34250113 10.98248313 -22.48242188 9.09379023 -22.48242188 5.25976562 C-21.62777344 4.98261719 -20.773125 4.70546875 -19.89257812 4.41992188 C-18.78785156 4.05769531 -17.683125 3.69546875 -16.54492188 3.32226562 C-15.44277344 2.96261719 -14.340625 2.60296875 -13.20507812 2.23242188 C-8.50985088 0.55507384 -5.1958312 0.02338358 0 0 Z " fill="#B14244" transform="translate(67.482421875,14.740234375)"/>
<path d="M0 0 C1.0625 1.875 1.0625 1.875 2 4 C1.67 4.66 1.34 5.32 1 6 C0.01 6 -0.98 6 -2 6 C-1.67 6.66 -1.34 7.32 -1 8 C-1.474375 8.4125 -1.94875 8.825 -2.4375 9.25 C-4.16266518 11.182185 -4.56584875 12.48192275 -5 15 C-5.99 14.67 -6.98 14.34 -8 14 C-8.33 14.66 -8.66 15.32 -9 16 C-9.99 15.67 -10.98 15.34 -12 15 C-11.67 12.36 -11.34 9.72 -11 7 C-13.64 6.67 -16.28 6.34 -19 6 C-17 4 -17 4 -14.375 3.875 C-13.59125 3.91625 -12.8075 3.9575 -12 4 C-11.67 3.34 -11.34 2.68 -11 2 C-10.67 3.32 -10.34 4.64 -10 6 C-8.02 5.34 -6.04 4.68 -4 4 C-4.33 3.34 -4.66 2.68 -5 2 C-4.01 1.67 -3.02 1.34 -2 1 C-1.67 1.33 -1.34 1.66 -1 2 C-0.67 1.34 -0.34 0.68 0 0 Z " fill="#B51C1D" transform="translate(98,47)"/>
<path d="M0 0 C0.99 0.33 1.98 0.66 3 1 C2.67 3.97 2.34 6.94 2 10 C3.32 10.66 4.64 11.32 6 12 C4.9375 13.5625 4.9375 13.5625 3 15 C-0.6875 14.6875 -0.6875 14.6875 -4 14 C-4.92089921 10.89196516 -5.47228324 8.22726878 -5 5 C-2.5 2.1875 -2.5 2.1875 0 0 Z " fill="#B72226" transform="translate(45,104)"/>
<path d="M0 0 C1.22589844 0.29197266 1.22589844 0.29197266 2.4765625 0.58984375 C3.41628906 0.82380859 3.41628906 0.82380859 4.375 1.0625 C4.375 1.7225 4.375 2.3825 4.375 3.0625 C6.685 3.7225 8.995 4.3825 11.375 5.0625 C11.375 5.7225 11.375 6.3825 11.375 7.0625 C12.035 7.3925 12.695 7.7225 13.375 8.0625 C12.055 8.3925 10.735 8.7225 9.375 9.0625 C9.375 9.7225 9.375 10.3825 9.375 11.0625 C8.385 11.0625 7.395 11.0625 6.375 11.0625 C6.375 12.0525 6.375 13.0425 6.375 14.0625 C5.715 14.0625 5.055 14.0625 4.375 14.0625 C4.375 15.0525 4.375 16.0425 4.375 17.0625 C2.725 17.3925 1.075 17.7225 -0.625 18.0625 C-0.191875 17.51980469 0.24125 16.97710937 0.6875 16.41796875 C1.244375 15.70253906 1.80125 14.98710938 2.375 14.25 C2.931875 13.54230469 3.48875 12.83460937 4.0625 12.10546875 C5.64525683 10.04654001 5.64525683 10.04654001 5.375 7.0625 C4.07043498 5.61215396 4.07043498 5.61215396 2.375 4.375 C1.385 3.611875 0.395 2.84875 -0.625 2.0625 C-2.935 3.7125 -5.245 5.3625 -7.625 7.0625 C-7.295 5.7425 -6.965 4.4225 -6.625 3.0625 C-6.625 2.0725 -6.625 1.0825 -6.625 0.0625 C-3.99249612 -1.25375194 -2.82320944 -0.68563658 0 0 Z " fill="#B92D31" transform="translate(44.625,80.9375)"/>
<path d="M0 0 C0.70576172 0.52400391 0.70576172 0.52400391 1.42578125 1.05859375 C2.35970703 1.74115234 2.35970703 1.74115234 3.3125 2.4375 C4.23482422 3.11619141 4.23482422 3.11619141 5.17578125 3.80859375 C8.953439 6.27580063 12.30236493 6.10591718 16.6875 6.0625 C17.86699219 6.05347656 19.04648438 6.04445313 20.26171875 6.03515625 C21.16535156 6.02355469 22.06898437 6.01195313 23 6 C21 9 21 9 19.046875 9.40625 C18.28890625 9.4371875 17.5309375 9.468125 16.75 9.5 C12.5553374 9.81071575 9.72513615 11.00114645 6 13 C5.34 12.67 4.68 12.34 4 12 C3.375 9.4375 3.375 9.4375 3 7 C2.01 7 1.02 7 0 7 C0 4.69 0 2.38 0 0 Z " fill="#BC3030" transform="translate(53,77)"/>
<path d="M0 0 C0 6.12968376 -5.92118805 11.05353001 -10 15.25 C-13.12785269 18.30567148 -16.25521583 20.7531295 -20 23 C-20.66 22.67 -21.32 22.34 -22 22 C-21.34 20.35 -20.68 18.7 -20 17 C-19.34 17 -18.68 17 -18 17 C-17.67 16.34 -17.34 15.68 -17 15 C-14.37418862 13.42451317 -13.12900213 13 -10 13 C-10 11.68 -10 10.36 -10 9 C-8.68 9 -7.36 9 -6 9 C-6.350625 8.38125 -6.70125 7.7625 -7.0625 7.125 C-7.371875 6.42375 -7.68125 5.7225 -8 5 C-7.67 4.34 -7.34 3.68 -7 3 C-6.01 3.33 -5.02 3.66 -4 4 C-3.67 3.01 -3.34 2.02 -3 1 C-2.01 0.67 -1.02 0.34 0 0 Z " fill="#BA484A" transform="translate(118,95)"/>
<path d="M0 0 C0 2.97 0 5.94 0 9 C0.66 9.33 1.32 9.66 2 10 C2 10.66 2 11.32 2 12 C2.66 12 3.32 12 4 12 C4 14.64 4 17.28 4 20 C2.02 20.99 2.02 20.99 0 22 C-2.5408218 17.25713263 -3.32502317 14.30009266 -2 9 C-2.99 8.67 -3.98 8.34 -5 8 C-4.40138258 5.64828869 -3.73075648 3.3140622 -3 1 C-1 0 -1 0 0 0 Z " fill="#B61C1C" transform="translate(119,38)"/>
<path d="M0 0 C0.33 0 0.66 0 1 0 C1.125 6.75 1.125 6.75 0 9 C-0.04778649 10.47839456 -0.03690998 11.95879392 0 13.4375 C0.09128438 21.97258916 -0.50574572 30.48293971 -1 39 C-6.31118319 29.21965046 -4.18351763 16.40121576 -2 6 C-1.39421747 3.98072489 -0.76410381 1.96483837 0 0 Z " fill="#B94F52" transform="translate(12,44)"/>
<path d="M0 0 C0.99 0.33 1.98 0.66 3 1 C3 1.99 3 2.98 3 4 C4.32 3.67 5.64 3.34 7 3 C7 3.66 7 4.32 7 5 C7.66 5.66 8.32 6.32 9 7 C8.67 7.66 8.34 8.32 8 9 C8.66 9.33 9.32 9.66 10 10 C7 12 7 12 4.5 11.8125 C1.75844451 10.92149447 0.66616173 10.33262642 -1 8 C-1.8125 5.5 -1.8125 5.5 -2 3 C-1.34 2.01 -0.68 1.02 0 0 Z " fill="#B93738" transform="translate(96,78)"/>
<path d="M0 0 C5.28 0.66 10.56 1.32 16 2 C16 2.33 16 2.66 16 3 C15.20078125 2.90976563 14.4015625 2.81953125 13.578125 2.7265625 C6.97652532 2.51920217 6.97652532 2.51920217 1.20654297 5.42138672 C-2.61279097 9.28569179 -5.84151817 13.58950735 -9 18 C-9.66 16.68 -10.32 15.36 -11 14 C-10.34 13.34 -9.68 12.68 -9 12 C-8.34 12.33 -7.68 12.66 -7 13 C-6.22227595 10.66682784 -5.57584432 8.38564077 -5 6 C-4.01 6 -3.02 6 -2 6 C-2 5.34 -2 4.68 -2 4 C-1.34 4 -0.68 4 0 4 C0 2.68 0 1.36 0 0 Z " fill="#BC4649" transform="translate(58,91)"/>
<path d="M0 0 C1.98 0.66 3.96 1.32 6 2 C5.01 2.495 5.01 2.495 4 3 C3.32426328 4.32875961 2.65895968 5.66284094 2 7 C0.99564028 8.28016835 -0.04690261 9.53128122 -1.125 10.75 C-1.93324219 11.67039062 -1.93324219 11.67039062 -2.7578125 12.609375 C-3.37269531 13.29773438 -3.37269531 13.29773438 -4 14 C-4.28875 13.360625 -4.5775 12.72125 -4.875 12.0625 C-5.82823451 9.84793921 -5.82823451 9.84793921 -8 9 C-7.04882866 7.8274869 -6.08882991 6.66212985 -5.125 5.5 C-4.32449219 4.52546875 -4.32449219 4.52546875 -3.5078125 3.53125 C-2.76144531 2.77328125 -2.76144531 2.77328125 -2 2 C-1.34 2 -0.68 2 0 2 C0 1.34 0 0.68 0 0 Z " fill="#BD3334" transform="translate(92,24)"/>
<path d="M0 0 C1.65 0 3.3 0 5 0 C4.360625 0.928125 3.72125 1.85625 3.0625 2.8125 C-0.24478813 7.92376347 -0.43262425 12.08411486 0 18 C0.88460028 21.41471924 0.88460028 21.41471924 2 24 C0.02 24.66 -1.96 25.32 -4 26 C-3.814375 24.865625 -3.62875 23.73125 -3.4375 22.5625 C-3.00917171 19.36130964 -3.12885632 16.73559611 -3.6875 13.5625 C-4.43890418 8.30267073 -2.50020297 4.53899509 0 0 Z " fill="#BB494C" transform="translate(51,53)"/>
<path d="M0 0 C2.31 0.66 4.62 1.32 7 2 C7 3.98 7 5.96 7 8 C6.34 8 5.68 8 5 8 C4.01 9.485 4.01 9.485 3 11 C0.375 12.1875 0.375 12.1875 -2 13 C-2 13.66 -2 14.32 -2 15 C-3.98 15 -5.96 15 -8 15 C-8.33 13.68 -8.66 12.36 -9 11 C-7.515 11.99 -7.515 11.99 -6 13 C-4.65787938 11.90653119 -3.32652025 10.7998425 -2 9.6875 C-1.2575 9.07261719 -0.515 8.45773438 0.25 7.82421875 C2.34613723 6.06049937 2.34613723 6.06049937 2 3 C1.34 2.01 0.68 1.02 0 0 Z " fill="#BC4042" transform="translate(103,92)"/>
<path d="M0 0 C0.66 0.66 1.32 1.32 2 2 C1.625 5.125 1.625 5.125 1 8 C0.34 8 -0.32 8 -1 8 C-1.226875 8.804375 -1.45375 9.60875 -1.6875 10.4375 C-2.3371875 11.7059375 -2.3371875 11.7059375 -3 13 C-5.625 13.8125 -5.625 13.8125 -8 14 C-7.01 12.35 -6.02 10.7 -5 9 C-6.98 6.69 -8.96 4.38 -11 2 C-9.55625 2.144375 -8.1125 2.28875 -6.625 2.4375 C-5.40683594 2.55931641 -5.40683594 2.55931641 -4.1640625 2.68359375 C-2 3 -2 3 0 4 C0 2.68 0 1.36 0 0 Z " fill="#BD4445" transform="translate(111,27)"/>
<path d="M0 0 C1.32 0.66 2.64 1.32 4 2 C4 3.32 4 4.64 4 6 C4.99 6 5.98 6 7 6 C6.67 8.64 6.34 11.28 6 14 C3.87491756 10.81237635 3.4979837 8.73487777 3 5 C2.05125 5.825 1.1025 6.65 0.125 7.5 C-2.75 10 -2.75 10 -5 10 C-5 9.01 -5 8.02 -5 7 C-4.34 6.67 -3.68 6.34 -3 6 C-3.33 5.01 -3.66 4.02 -4 3 C-2.68 2.01 -1.36 1.02 0 0 Z " fill="#BC3235" transform="translate(110,41)"/>
<path d="M0 0 C2.5625 0.125 2.5625 0.125 4.5625 1.125 C5.5525 0.795 6.5425 0.465 7.5625 0.125 C8.2225 2.105 8.8825 4.085 9.5625 6.125 C8.964375 6.269375 8.36625 6.41375 7.75 6.5625 C6.00099596 7.0122439 4.27572977 7.55392341 2.5625 8.125 C2.5625 7.465 2.5625 6.805 2.5625 6.125 C1.94375 6.0425 1.325 5.96 0.6875 5.875 C-1.4375 5.125 -1.4375 5.125 -2.6875 3.0625 C-3.05875 2.1034375 -3.05875 2.1034375 -3.4375 1.125 C-2.4375 0.125 -2.4375 0.125 0 0 Z " fill="#B51D1C" transform="translate(86.4375,13.875)"/>
<path d="M0 0 C0.33 1.32 0.66 2.64 1 4 C0.34 4 -0.32 4 -1 4 C-1 5.32 -1 6.64 -1 8 C-0.34 8.33 0.32 8.66 1 9 C-0.32 9.33 -1.64 9.66 -3 10 C-3 9.34 -3 8.68 -3 8 C-4.32 8 -5.64 8 -7 8 C-7.33 6.02 -7.66 4.04 -8 2 C-4.77208445 -0.1519437 -3.71599191 -0.20086443 0 0 Z " fill="#B72929" transform="translate(93,101)"/>
<path d="M0 0 C3.08089673 2.77280706 4.68775452 5.06326356 6 9 C5.01 9.33 4.02 9.66 3 10 C2.67 12.31 2.34 14.62 2 17 C0.35 15.35 -1.3 13.7 -3 12 C-2.67 11.01 -2.34 10.02 -2 9 C-1.34 9 -0.68 9 0 9 C0 6.03 0 3.06 0 0 Z " fill="#B81C1E" transform="translate(113,29)"/>
<path d="M0 0 C0.66 0 1.32 0 2 0 C0.375 5.75 0.375 5.75 -3 8 C-3 8.99 -3 9.98 -3 11 C-3.66 10.67 -4.32 10.34 -5 10 C-7.22624593 10.3191623 -7.22624593 10.3191623 -9.625 10.9375 C-10.44226563 11.13214844 -11.25953125 11.32679687 -12.1015625 11.52734375 C-13.04128906 11.76130859 -13.04128906 11.76130859 -14 12 C-13.67 10.68 -13.34 9.36 -13 8 C-12.67 8.66 -12.34 9.32 -12 10 C-10.18696196 8.52149287 -8.37458402 7.04217625 -6.5625 5.5625 C-5.55316406 4.73878906 -4.54382813 3.91507812 -3.50390625 3.06640625 C-1.70216039 1.58798996 -1.70216039 1.58798996 0 0 Z " fill="#B93E41" transform="translate(35,76)"/>
<path d="M0 0 C0.66 0.33 1.32 0.66 2 1 C2.05437005 3.85442753 2.09384974 6.70780076 2.125 9.5625 C2.15013672 10.76229492 2.15013672 10.76229492 2.17578125 11.98632812 C2.21723982 17.06500335 1.64056075 21.18811906 0 26 C-0.66 26 -1.32 26 -2 26 C-1.835 24.845 -1.67 23.69 -1.5 22.5 C-0.87743899 17.10447122 -0.9447231 11.74388119 -1.03710938 6.32226562 C-1.0591782 4.54827122 -1.03378686 2.77380991 -1 1 C-0.67 0.67 -0.34 0.34 0 0 Z " fill="#B54647" transform="translate(117,55)"/>
<path d="M0 0 C0 0.33 0 0.66 0 1 C-1.15628906 1.30744141 -1.15628906 1.30744141 -2.3359375 1.62109375 C-3.33882812 1.89050781 -4.34171875 2.15992188 -5.375 2.4375 C-6.37273438 2.70433594 -7.37046875 2.97117187 -8.3984375 3.24609375 C-10.95417701 3.90184356 -10.95417701 3.90184356 -13 5 C-11.35 6.98 -9.7 8.96 -8 11 C-8.33 11.66 -8.66 12.32 -9 13 C-11.375 12.8125 -11.375 12.8125 -14 12 C-15.86007925 8.72271751 -16 6.8340246 -16 3 C-10.47239641 0.89424625 -5.93002267 -0.37851209 0 0 Z " fill="#C15859" transform="translate(61,17)"/>
<path d="M0 0 C2.92879371 0.62759865 5.36095629 1.58622659 8 3 C8.33 2.34 8.66 1.68 9 1 C9 2.32 9 3.64 9 5 C5.04 6.32 1.08 7.64 -3 9 C-3.33 8.34 -3.66 7.68 -4 7 C-3.525625 6.5875 -3.05125 6.175 -2.5625 5.75 C-0.83733482 3.817815 -0.43415125 2.51807725 0 0 Z " fill="#B72629" transform="translate(105,83)"/>
<path d="M0 0 C5.75 -0.125 5.75 -0.125 8 1 C8.10349817 7.41688675 7.74507544 13.62694402 7 20 C6.34 20 5.68 20 5 20 C5.03480469 19.27554688 5.06960937 18.55109375 5.10546875 17.8046875 C5.31444659 10.34119324 4.15946363 6.23919544 0 0 Z " fill="#BE4D4F" transform="translate(79,53)"/>
<path d="M0 0 C0.33 0.99 0.66 1.98 1 3 C0.01 3.33 -0.98 3.66 -2 4 C-3.44123112 5.71502233 -3.44123112 5.71502233 -4 8 C-3.21297649 10.7193293 -3.21297649 10.7193293 -2 13 C-3.98 13 -5.96 13 -8 13 C-8.5 9.875 -8.5 9.875 -8 6 C-5.59682455 3.57047394 -2.91082436 1.7737836 0 0 Z " fill="#B41D1C" transform="translate(89,25)"/>
<path d="M0 0 C0.99 0.33 1.98 0.66 3 1 C3 1.66 3 2.32 3 3 C5.64 3.66 8.28 4.32 11 5 C10.01 6.32 9.02 7.64 8 9 C5.69 8.67 3.38 8.34 1 8 C0.17361624 5.10765685 0 3.11257569 0 0 Z " fill="#B81B19" transform="translate(40,110)"/>
<path d="M0 0 C3.38417219 3.86762536 6.05363156 8.83573776 5.96484375 14.07421875 C5.72634663 15.73026211 5.37373711 17.36914714 5 19 C4.67 19 4.34 19 4 19 C4 16.69 4 14.38 4 12 C3.34 12 2.68 12 2 12 C0 10 0 10 -1 7 C-0.72230092 4.6593935 -0.39460023 2.32375692 0 0 Z " fill="#BE5959" transform="translate(119,38)"/>
<path d="M0 0 C6.0546875 -0.1953125 6.0546875 -0.1953125 8 0 C10.1385485 2.1385485 10.42655063 3.13275314 11 6 C3.57142857 6.28571429 3.57142857 6.28571429 0 4 C0 2.68 0 1.36 0 0 Z " fill="#B61C1E" transform="translate(100,25)"/>
<path d="M0 0 C2 2 2 2 3 5 C3.66 4.01 4.32 3.02 5 2 C6 3 6 3 6.0625 5.5625 C6.041875 6.366875 6.02125 7.17125 6 8 C5.34 8 4.68 8 4 8 C4.75150023 11.27773504 4.75150023 11.27773504 8 13 C6.02 13.99 6.02 13.99 4 15 C3.13153169 13.25705322 2.28069373 11.50531337 1.4375 9.75 C0.72400391 8.28820312 0.72400391 8.28820312 -0.00390625 6.796875 C-1.03510273 3.90143703 -1.11346788 2.80033839 0 0 Z " fill="#BD4546" transform="translate(12,82)"/>
<path d="M0 0 C0 0.66 0 1.32 0 2 C-0.66 2 -1.32 2 -2 2 C-2 2.66 -2 3.32 -2 4 C-4.24417049 5.99481822 -6.35381298 7.6866972 -9.0625 9 C-11.51801416 10.26736215 -13.12590817 11.99204447 -15 14 C-15.66 13.67 -16.32 13.34 -17 13 C-4.39393939 -0 -4.39393939 -0 0 0 Z " fill="#B95255" transform="translate(39,15)"/>
<path d="M0 0 C1.02673828 0.24556641 1.02673828 0.24556641 2.07421875 0.49609375 C5.3743278 1.06447034 8.46554069 1.09630767 11.8125 1.0625 C13.55466797 1.04896484 13.55466797 1.04896484 15.33203125 1.03515625 C16.21246094 1.02355469 17.09289062 1.01195313 18 1 C16 4 16 4 13.5390625 4.51171875 C12.09660156 4.59873047 12.09660156 4.59873047 10.625 4.6875 C9.66851562 4.75324219 8.71203125 4.81898437 7.7265625 4.88671875 C5.48599004 4.97980844 3.24250544 5 1 5 C0.67 3.35 0.34 1.7 0 0 Z " fill="#BC4345" transform="translate(58,82)"/>
<path d="M0 0 C0.66 0.66 1.32 1.32 2 2 C1.75 5.5625 1.75 5.5625 1 9 C0.01 9.495 0.01 9.495 -1 10 C-2.0409066 11.64142963 -3.04504326 13.30712215 -4 15 C-5.65 14.67 -7.3 14.34 -9 14 C-9 13.34 -9 12.68 -9 12 C-8.236875 11.79375 -7.47375 11.5875 -6.6875 11.375 C-3.12210836 9.55084614 -2.46442913 7.66107282 -1 4 C-0.31363375 1.76474965 -0.31363375 1.76474965 0 0 Z " fill="#B21D1B" transform="translate(112,29)"/>
<path d="M0 0 C-0.33 1.98 -0.66 3.96 -1 6 C-1.33 5.34 -1.66 4.68 -2 4 C-3.98 4.33 -5.96 4.66 -8 5 C-8.33 6.32 -8.66 7.64 -9 9 C-9.66 9 -10.32 9 -11 9 C-9.75587233 5.55472339 -8.45185936 2.74608248 -6 0 C-3 -1 -3 -1 0 0 Z " fill="#B51D1F" transform="translate(27,29)"/>
<path d="M0 0 C0.66 0.66 1.32 1.32 2 2 C4.60280568 1.67958603 4.60280568 1.67958603 7 1 C6.125 6.75 6.125 6.75 5 9 C1.63279613 7.60667426 0.0140476 6.0210714 -2 3 C-1.34 2.01 -0.68 1.02 0 0 Z " fill="#B21D1E" transform="translate(23,98)"/>
<path d="M0 0 C1.22589844 0.29197266 1.22589844 0.29197266 2.4765625 0.58984375 C3.41628906 0.82380859 3.41628906 0.82380859 4.375 1.0625 C4.375 2.7125 4.375 4.3625 4.375 6.0625 C2.725 4.7425 1.075 3.4225 -0.625 2.0625 C-2.935 3.7125 -5.245 5.3625 -7.625 7.0625 C-7.295 5.7425 -6.965 4.4225 -6.625 3.0625 C-6.625 2.0725 -6.625 1.0825 -6.625 0.0625 C-3.99249612 -1.25375194 -2.82320944 -0.68563658 0 0 Z " fill="#BD3F41" transform="translate(44.625,80.9375)"/>
<path d="M0 0 C3.17944076 0.68691621 6.11705247 1.47156347 9 3 C10.43817505 5.42389054 10.6230546 7.14598486 11 10 C8 10 8 10 5.95703125 8.06640625 C5.24933594 7.24011719 4.54164062 6.41382813 3.8125 5.5625 C3.09707031 4.73878906 2.38164063 3.91507813 1.64453125 3.06640625 C0 1 0 1 0 0 Z " fill="#BE4949" transform="translate(39,28)"/>
<path d="M0 0 C2.64 1.98 5.28 3.96 8 6 C9.32 5.01 10.64 4.02 12 3 C11.67 4.65 11.34 6.3 11 8 C9.35333797 7.8864371 7.70763918 7.75882619 6.0625 7.625 C4.68771484 7.52058594 4.68771484 7.52058594 3.28515625 7.4140625 C2.15400391 7.20910156 2.15400391 7.20910156 1 7 C0.33333333 5.66666667 -0.33333333 4.33333333 -1 3 C-0.67 2.01 -0.34 1.02 0 0 Z " fill="#C15455" transform="translate(30,99)"/>
<path d="M0 0 C0.66 0 1.32 0 2 0 C1.54917531 1.46067199 1.08906463 2.91848032 0.625 4.375 C0.36976562 5.18710938 0.11453125 5.99921875 -0.1484375 6.8359375 C-1 9 -1 9 -3 11 C-3.66 10.34 -4.32 9.68 -5 9 C-5.66 8.67 -6.32 8.34 -7 8 C-6.34 6.35 -5.68 4.7 -5 3 C-4.67 3.66 -4.34 4.32 -4 5 C-3.01 5 -2.02 5 -1 5 C-0.67 3.35 -0.34 1.7 0 0 Z " fill="#BE4445" transform="translate(122,84)"/>
<path d="M0 0 C0.99 0 1.98 0 3 0 C3 0.66 3 1.32 3 2 C3.66 2.66 4.32 3.32 5 4 C4.67 4.66 4.34 5.32 4 6 C4.66 6.33 5.32 6.66 6 7 C4.35 7.66 2.7 8.32 1 9 C-0.625 6.75 -0.625 6.75 -2 4 C-1.1875 1.6875 -1.1875 1.6875 0 0 Z " fill="#B81B19" transform="translate(100,81)"/>
<path d="M0 0 C3.09415757 0.42656082 6.05880129 0.92998438 9 2 C10.5625 4.625 10.5625 4.625 11 7 C10.01 7.495 10.01 7.495 9 8 C7.68388323 7.04663979 6.37221039 6.08714226 5.0625 5.125 C4.33160156 4.59132813 3.60070312 4.05765625 2.84765625 3.5078125 C1 2 1 2 0 0 Z " fill="#B84546" transform="translate(27,109)"/>
<path d="M0 0 C0.66 0.99 1.32 1.98 2 3 C1.67 3.66 1.34 4.32 1 5 C0.01 5 -0.98 5 -2 5 C-2.33 5.99 -2.66 6.98 -3 8 C-3.99 8.33 -4.98 8.66 -6 9 C-6.99 8.34 -7.98 7.68 -9 7 C-6.03 4.69 -3.06 2.38 0 0 Z " fill="#BE5353" transform="translate(102,41)"/>
<path d="M0 0 C0 3.39593478 -0.52165948 4.06619881 -2.5 6.6875 C-2.9640625 7.31011719 -3.428125 7.93273437 -3.90625 8.57421875 C-4.2671875 9.04472656 -4.628125 9.51523438 -5 10 C-6.5625 8.1875 -6.5625 8.1875 -8 6 C-7.67 5.01 -7.34 4.02 -7 3 C-6.01 3.33 -5.02 3.66 -4 4 C-3.67 3.01 -3.34 2.02 -3 1 C-2.01 0.67 -1.02 0.34 0 0 Z " fill="#BE5053" transform="translate(118,95)"/>
<path d="M0 0 C0.33 0 0.66 0 1 0 C1.13277344 1.01320313 1.26554687 2.02640625 1.40234375 3.0703125 C1.58067584 4.42188204 1.75906425 5.77344414 1.9375 7.125 C2.02451172 7.79015625 2.11152344 8.4553125 2.20117188 9.140625 C2.72630558 13.10830188 3.31814014 17.05626998 4 21 C3.34 21 2.68 21 2 21 C2 19.68 2 18.36 2 17 C1.34 17 0.68 17 0 17 C0 11.39 0 5.78 0 0 Z " fill="#BD5759" transform="translate(17,63)"/>
<path d="M0 0 C2.64 0.33 5.28 0.66 8 1 C5.42215154 3.64752004 3.08351902 5.94432065 0 8 C-0.625 6.125 -0.625 6.125 -1 4 C-0.34 3.34 0.32 2.68 1 2 C0.67 1.34 0.34 0.68 0 0 Z " fill="#BF4648" transform="translate(95,52)"/>
<path d="M0 0 C1.32 0 2.64 0 4 0 C4.375 2.6875 4.375 2.6875 4 6 C2.176017 8.06398076 0.27236161 9.39041053 -2 11 C-2.66 10.67 -3.32 10.34 -4 10 C-2.02 7.36 -0.04 4.72 2 2 C1.34 1.34 0.68 0.68 0 0 Z " fill="#BE5659" transform="translate(85,20)"/>
<path d="M0 0 C0.33 1.32 0.66 2.64 1 4 C-0.98 4.99 -0.98 4.99 -3 6 C-3 6.66 -3 7.32 -3 8 C-4.98 8 -6.96 8 -9 8 C-9.33 6.68 -9.66 5.36 -10 4 C-8.515 4.99 -8.515 4.99 -7 6 C-4.69 4.02 -2.38 2.04 0 0 Z " fill="#C05D5E" transform="translate(104,99)"/>
<path d="M0 0 C0 1.65 0 3.3 0 5 C0.66 5.33 1.32 5.66 2 6 C-1 7 -1 7 -4 6 C-5.6875 3.4375 -5.6875 3.4375 -7 1 C-2.25 0 -2.25 0 0 0 Z " fill="#B83838" transform="translate(81,93)"/>
<path d="M0 0 C5.28 0.66 10.56 1.32 16 2 C16 2.33 16 2.66 16 3 C15.09636719 3.04898438 14.19273438 3.09796875 13.26171875 3.1484375 C12.08222656 3.22320312 10.90273437 3.29796875 9.6875 3.375 C7.92986328 3.47941406 7.92986328 3.47941406 6.13671875 3.5859375 C2.84300113 3.78613747 2.84300113 3.78613747 0 6 C0 4.02 0 2.04 0 0 Z " fill="#D26E71" transform="translate(58,91)"/>
<path d="M0 0 C1.65 0.33 3.3 0.66 5 1 C2.19195732 3.96404505 -0.18315774 6.44499019 -4 8 C-4.33 7.01 -4.66 6.02 -5 5 C-3.68 5 -2.36 5 -1 5 C-0.67 3.35 -0.34 1.7 0 0 Z " fill="#C2575B" transform="translate(32,87)"/>
<path d="M0 0 C-5.75 2 -5.75 2 -8 2 C-8.33 2.99 -8.66 3.98 -9 5 C-11.31 5 -13.62 5 -16 5 C-11.53321948 1.09156705 -5.86504904 -1.93756084 0 0 Z " fill="#C15D61" transform="translate(55,10)"/>
<path d="M0 0 C1.2065625 0.0309375 1.2065625 0.0309375 2.4375 0.0625 C1.4784375 1.4546875 1.4784375 1.4546875 0.5 2.875 C-1.64872093 5.90469943 -1.64872093 5.90469943 -2.5625 9.0625 C-3.2225 9.0625 -3.8825 9.0625 -4.5625 9.0625 C-3.56521739 0.08695652 -3.56521739 0.08695652 0 0 Z " fill="#C05758" transform="translate(53.5625,52.9375)"/>
<path d="M0 0 C0.66 0.33 1.32 0.66 2 1 C1.67 1.66 1.34 2.32 1 3 C1.66 3 2.32 3 3 3 C2.625 5.4375 2.625 5.4375 2 8 C1.01 8.495 1.01 8.495 0 9 C-0.12375 8.360625 -0.2475 7.72125 -0.375 7.0625 C-0.684375 6.0415625 -0.684375 6.0415625 -1 5 C-1.66 4.67 -2.32 4.34 -3 4 C-2.01 2.68 -1.02 1.36 0 0 Z " fill="#BB3335" transform="translate(87,29)"/>
<path d="M0 0 C0.33 0 0.66 0 1 0 C1.2396943 5.63281599 0.38529821 10.54538831 -1 16 C-1.66 15.34 -2.32 14.68 -3 14 C-2.66621509 8.99322638 -1.76961889 4.71898372 0 0 Z " fill="#BE5D60" transform="translate(12,44)"/>
<path d="M0 0 C0.66 0.33 1.32 0.66 2 1 C1.67 2.32 1.34 3.64 1 5 C-1.97 5.66 -4.94 6.32 -8 7 C-7.67 5.68 -7.34 4.36 -7 3 C-6.67 3.66 -6.34 4.32 -6 5 C-4.02 3.35 -2.04 1.7 0 0 Z " fill="#C35D5D" transform="translate(29,81)"/>
<path d="M0 0 C0.99 0.99 1.98 1.98 3 3 C2.01 3.33 1.02 3.66 0 4 C0 5.65 0 7.3 0 9 C-1.32 8.67 -2.64 8.34 -4 8 C-4 7.01 -4 6.02 -4 5 C-3.01 5 -2.02 5 -1 5 C-0.67 3.35 -0.34 1.7 0 0 Z " fill="#B62C2D" transform="translate(118,76)"/>
<path d="M0 0 C11.52164009 -0.55353075 11.52164009 -0.55353075 17 3 C16.01 3.66 15.02 4.32 14 5 C13.175 4.525625 12.35 4.05125 11.5 3.5625 C7.47204099 1.76430401 4.36826421 1.3765745 0 1 C0 0.67 0 0.34 0 0 Z " fill="#C5666A" transform="translate(64,48)"/>
<path d="M0 0 C1.4540625 0.0309375 1.4540625 0.0309375 2.9375 0.0625 C0.1875 5.8125 0.1875 5.8125 -2.0625 8.0625 C-2.0625 6.0825 -2.0625 4.1025 -2.0625 2.0625 C-2.7225 1.7325 -3.3825 1.4025 -4.0625 1.0625 C-3.0625 0.0625 -3.0625 0.0625 0 0 Z " fill="#BF4E51" transform="translate(84.0625,37.9375)"/>
<path d="M0 0 C3.37503669 1.1858237 5.64722731 2.27573689 8 5 C4.86650268 6.04449911 4.01031744 5.93423645 1 5 C0.67 3.35 0.34 1.7 0 0 Z " fill="#B9494B" transform="translate(94,14)"/>
<path d="M0 0 C0.33 0 0.66 0 1 0 C1 1.65 1 3.3 1 5 C0.34 5 -0.32 5 -1 5 C-1 5.66 -1 6.32 -1 7 C-2.65 7.33 -4.3 7.66 -6 8 C-5.02471263 6.66382648 -4.04466681 5.3311249 -3.0625 4 C-2.24458984 2.88625 -2.24458984 2.88625 -1.41015625 1.75 C-0.94480469 1.1725 -0.47945313 0.595 0 0 Z " fill="#C04F54" transform="translate(80,31)"/>
<path d="M0 0 C0.33 0.66 0.66 1.32 1 2 C0.67 2.99 0.34 3.98 0 5 C-0.66 5 -1.32 5 -2 5 C-2 5.99 -2 6.98 -2 8 C-3.65 8.33 -5.3 8.66 -7 9 C-6.02180976 7.68677212 -5.0424189 6.37443848 -4.0625 5.0625 C-3.51722656 4.33160156 -2.97195312 3.60070312 -2.41015625 2.84765625 C-1 1 -1 1 0 0 Z " fill="#C46868" transform="translate(51,90)"/>
<path d="M0 0 C0.99 0 1.98 0 3 0 C5.1875 2.5 5.1875 2.5 7 5 C6.67 5.66 6.34 6.32 6 7 C4.02 6.01 2.04 5.02 0 4 C0 2.68 0 1.36 0 0 Z " fill="#B91A1C" transform="translate(80,92)"/>
<path d="M0 0 C1.32 0.99 2.64 1.98 4 3 C4.66 2.67 5.32 2.34 6 2 C6.66 2.66 7.32 3.32 8 4 C6 6 6 6 3.375 6.125 C2.59125 6.08375 1.8075 6.0425 1 6 C0.67 4.02 0.34 2.04 0 0 Z " fill="#BE4D4F" transform="translate(87,47)"/>
<path d="M0 0 C1.31611677 0.95336021 2.62778961 1.91285774 3.9375 2.875 C4.66839844 3.40867188 5.39929687 3.94234375 6.15234375 4.4921875 C8 6 8 6 9 8 C8.01 8.33 7.02 8.66 6 9 C5.67 8.34 5.34 7.68 5 7 C4.01 6.67 3.02 6.34 2 6 C0.8125 2.9375 0.8125 2.9375 0 0 Z " fill="#C06569" transform="translate(35,43)"/>
<path d="M0 0 C3.08089673 2.77280706 4.68775452 5.06326356 6 9 C5.01 9 4.02 9 3 9 C0.23776722 6.23776722 0.42143709 3.79293383 0 0 Z " fill="#C2575B" transform="translate(113,29)"/>
<path d="M0 0 C0.66 0.33 1.32 0.66 2 1 C2 1.99 2 2.98 2 4 C1.34 4 0.68 4 0 4 C0 4.66 0 5.32 0 6 C-2.4375 5.625 -2.4375 5.625 -5 5 C-5.33 4.34 -5.66 3.68 -6 3 C-4.68 3.33 -3.36 3.66 -2 4 C-1.34 2.68 -0.68 1.36 0 0 Z " fill="#B72A2A" transform="translate(30,103)"/>
<path d="M0 0 C1.98 0.99 3.96 1.98 6 3 C6.33 2.34 6.66 1.68 7 1 C7 2.32 7 3.64 7 5 C2.25 6.125 2.25 6.125 0 5 C0 3.35 0 1.7 0 0 Z " fill="#C36061" transform="translate(107,83)"/>
<path d="M0 0 C1.4606285 2.64738916 2 3.89448334 2 7 C1.34 7 0.68 7 0 7 C0 7.66 0 8.32 0 9 C-0.66 9 -1.32 9 -2 9 C-1.125 2.25 -1.125 2.25 0 0 Z " fill="#B63F40" transform="translate(15,38)"/>
<path d="M0 0 C1.32 1.32 2.64 2.64 4 4 C0.04 4 -3.92 4 -8 4 C-8 3.34 -8 2.68 -8 2 C-5.69 2 -3.38 2 -1 2 C-0.67 1.34 -0.34 0.68 0 0 Z " fill="#A82522" transform="translate(70,89)"/>
<path d="M0 0 C1.65 0.33 3.3 0.66 5 1 C3.95125002 3.62187494 3.35068687 4.79371361 0.875 6.25 C0.25625 6.4975 -0.3625 6.745 -1 7 C-1 6.01 -1 5.02 -1 4 C-0.34 3.67 0.32 3.34 1 3 C0.67 2.01 0.34 1.02 0 0 Z " fill="#BB4A4C" transform="translate(106,44)"/>
<path d="M0 0 C0.99 0.33 1.98 0.66 3 1 C2.67 2.32 2.34 3.64 2 5 C0.35 5 -1.3 5 -3 5 C-3 4.01 -3 3.02 -3 2 C-2.01 1.34 -1.02 0.68 0 0 Z " fill="#B91B1C" transform="translate(88,101)"/>
<path d="M0 0 C0.66 0 1.32 0 2 0 C2 0.66 2 1.32 2 2 C2.99 2.33 3.98 2.66 5 3 C6.6875 5.5625 6.6875 5.5625 8 8 C7.01 8 6.02 8 5 8 C3.61328125 6.50390625 3.61328125 6.50390625 2.3125 4.5625 C1.87550781 3.92441406 1.43851563 3.28632812 0.98828125 2.62890625 C0 1 0 1 0 0 Z " fill="#BF5B59" transform="translate(17,97)"/>
<path d="M0 0 C2 3 2 3 3 6 C1.02 6.66 -0.96 7.32 -3 8 C-2.690625 7.236875 -2.38125 6.47375 -2.0625 5.6875 C-1.32106407 3.81210323 -0.63771783 1.91315348 0 0 Z " fill="#C03E42" transform="translate(50,71)"/>
<path d="M0 0 C0.99 0.33 1.98 0.66 3 1 C3 2.98 3 4.96 3 7 C1.68 7.33 0.36 7.66 -1 8 C-0.67 5.36 -0.34 2.72 0 0 Z " fill="#B41C1C" transform="translate(90,65)"/>
<path d="M0 0 C0.66 0 1.32 0 2 0 C2.33 0.99 2.66 1.98 3 3 C1.35 4.32 -0.3 5.64 -2 7 C-2.125 4.625 -2.125 4.625 -2 2 C-1.34 1.34 -0.68 0.68 0 0 Z " fill="#B81B1C" transform="translate(13,53)"/>
<path d="M0 0 C2 2 2 2 2.1953125 3.9453125 C2.13020833 5.96354167 2.06510417 7.98177083 2 10 C1.01 10 0.02 10 -1 10 C-0.67 6.7 -0.34 3.4 0 0 Z " fill="#BB3A3D" transform="translate(119,38)"/>
<path d="M0 0 C1.32 0.66 2.64 1.32 4 2 C1.69 3.65 -0.62 5.3 -3 7 C-3.33 5.68 -3.66 4.36 -4 3 C-2.68 3 -1.36 3 0 3 C0 2.01 0 1.02 0 0 Z " fill="#BE5558" transform="translate(35,25)"/>
<path d="M0 0 C2.31 0.33 4.62 0.66 7 1 C7 2.65 7 4.3 7 6 C5.35 4.68 3.7 3.36 2 2 C1.01 2.495 1.01 2.495 0 3 C0 2.01 0 1.02 0 0 Z " fill="#C76869" transform="translate(42,81)"/>
<path d="M0 0 C0.33 0.99 0.66 1.98 1 3 C0.67 3.66 0.34 4.32 0 5 C-0.66 5 -1.32 5 -2 5 C-2.33 6.32 -2.66 7.64 -3 9 C-3.66 9 -4.32 9 -5 9 C-3.7508258 5.54074837 -2.32472205 2.85306797 0 0 Z " fill="#C06667" transform="translate(21,29)"/>
<path d="M0 0 C1.98 0.66 3.96 1.32 6 2 C5.01 2.495 5.01 2.495 4 3 C2.86649466 5.01669827 2.86649466 5.01669827 2 7 C0 4 0 4 0 0 Z " fill="#BF4F52" transform="translate(92,24)"/>
<path d="M0 0 C-1.625 1.125 -1.625 1.125 -4 2 C-7.25 1.125 -7.25 1.125 -10 0 C-10 -0.33 -10 -0.66 -10 -1 C-5.92224809 -1.9267618 -3.57818963 -2.33958553 0 0 Z " fill="#BD3739" transform="translate(94,14)"/>
<path d="M0 0 C0.99 0 1.98 0 3 0 C2.67 2.64 2.34 5.28 2 8 C-0.1519437 4.77208445 -0.20086443 3.71599191 0 0 Z " fill="#BB4B4A" transform="translate(114,47)"/>
<path d="M0 0 C2.125 0.9375 2.125 0.9375 4 2 C3.67 3.32 3.34 4.64 3 6 C1.35 4.35 -0.3 2.7 -2 1 C-1.34 0.67 -0.68 0.34 0 0 Z " fill="#C15056" transform="translate(24,44)"/>
<path d="M0 0 C0.99 0.33 1.98 0.66 3 1 C2.67 1.66 2.34 2.32 2 3 C-0.5625 3.625 -0.5625 3.625 -3 4 C-3 4.66 -3 5.32 -3 6 C-3.66 5.67 -4.32 5.34 -5 5 C-3.35 3.35 -1.7 1.7 0 0 Z " fill="#BC5557" transform="translate(51,44)"/>
</svg>
